<?xml version="1.0" standalone="no"?>
<!DOCTYPE svg PUBLIC "-//W3C//DTD SVG 20010904//EN"
 "http://www.w3.org/TR/2001/REC-SVG-20010904/DTD/svg10.dtd">
<svg version="1.0" xmlns="http://www.w3.org/2000/svg"
 width="50.000000pt" height="48.000000pt" viewBox="0 0 50.000000 48.000000"
 preserveAspectRatio="xMidYMid meet">

<g transform="translate(0.000000,48.000000) scale(0.100000,-0.100000)"
fill="#000000" stroke="none">
<path d="M129 459 c21 -17 20 -24 -1 -20 -5 0 -8 -4 -8 -10 0 -6 9 -8 23 -3
41 13 92 24 112 23 11 0 -3 -6 -31 -13 -28 -7 -61 -20 -74 -29 -27 -18 -45
-22 -36 -8 4 5 1 11 -6 13 -19 7 -58 -3 -52 -13 3 -5 10 -7 15 -4 8 6 13 -9
10 -29 -1 -5 4 -13 11 -17 7 -4 9 -11 5 -16 -5 -4 -12 -1 -16 6 -5 7 -14 10
-20 7 -6 -4 -9 -10 -7 -14 2 -4 -2 -13 -10 -20 -8 -7 -14 -9 -14 -5 0 4 -7 -1
-15 -11 -11 -15 -15 -49 -15 -133 l0 -113 74 3 73 2 -33 39 c-19 22 -34 44
-34 49 0 5 18 -11 40 -36 l41 -46 72 5 c40 2 88 6 108 9 22 3 59 -3 92 -14 30
-11 58 -17 60 -14 3 3 6 101 7 219 l1 215 -198 -2 c-194 -2 -197 -2 -174 -20z
m204 -68 c-35 -4 -67 -17 -100 -40 l-48 -33 35 31 c41 36 35 39 -20 11 -22
-11 -40 -18 -40 -15 0 2 21 16 48 29 37 20 61 25 112 24 l65 -1 -52 -6z m-182
-168 c10 -24 16 -43 13 -43 -8 0 -44 83 -43 100 1 13 1 13 6 0 4 -8 14 -34 24
-57z m-84 0 c-3 -10 -5 -2 -5 17 0 19 2 27 5 18 2 -10 2 -26 0 -35z m110 5
c-3 -8 -6 -5 -6 6 -1 11 2 17 5 13 3 -3 4 -12 1 -19z m27 7 c3 -8 1 -15 -4
-15 -6 0 -10 7 -10 15 0 8 2 15 4 15 2 0 6 -7 10 -15z m24 -10 c-3 -3 -9 2
-12 12 -6 14 -5 15 5 6 7 -7 10 -15 7 -18z m39 3 c-3 -8 -6 -5 -6 6 -1 11 2
17 5 13 3 -3 4 -12 1 -19z m50 0 c-3 -8 -6 -5 -6 6 -1 11 2 17 5 13 3 -3 4
-12 1 -19z m82 -75 c-27 -32 -91 -53 -159 -51 l-65 1 70 7 c65 6 138 31 151
51 3 5 8 9 11 9 3 0 -1 -7 -8 -17z"/>
<path d="M16 358 c4 -33 10 -45 19 -36 7 7 -6 68 -15 68 -4 0 -6 -14 -4 -32z"/>
<path d="M90 32 c-73 -5 -67 -19 10 -27 94 -9 350 9 335 24 -7 6 -263 9 -345
3z"/>
</g>
</svg>
